<?xml version="1.0" encoding="utf-8"?>
<!-- Generator: Adobe Illustrator 19.1.0, SVG Export Plug-In . SVG Version: 6.00 Build 0)  -->
<svg version="1.1" id="Layer_1" xmlns="http://www.w3.org/2000/svg" xmlns:xlink="http://www.w3.org/1999/xlink" x="0px" y="0px"
	 viewBox="-382.1 174.7 214.8 107" style="enable-background:new -382.1 174.7 214.8 107;" xml:space="preserve">
<style type="text/css">
	.st0{fill:#73B7C3;}
	.st1{fill:#EA7625;}
	.st2{fill:#EDB51D;}
	.st3{fill:#01838C;}
	.st4{fill:#9D846E;}
</style>
<path class="st0" d="M-320.5,199.6l0.4-0.7c-3.4-1.8-6.9-3-10.4-3.5c-1.5-0.2-2.9-0.3-4.3-0.3c-11.6,0-22,7-25.8,17.4l3.7,1.4
	c3.3-8.8,12.1-14.8,22.1-14.8c1.2,0,2.5,0.1,3.8,0.3c6.7,1,13.2,4.6,19.3,10.9l2.2-2.1C-312.7,205-316.3,201.9-320.5,199.6z"/>
<path class="st0" d="M-347.8,246c-9.9-4.6-16.5-14.4-16.5-25.1c0-5.3,1.6-10.5,4.5-15c1.1-1.7,2.5-3.3,3.9-4.7l1.8,1.9
	c-1.2,1.3-2.4,2.8-3.5,4.3c-2.7,4-4.1,8.6-4.1,13.4c0,9.6,5.7,18.4,15,22.7C-346.7,243.5-347.8,246-347.8,246z M-299,224.3l-1.2-2.7
	c-0.1-0.2-0.2-0.5-0.4-0.8c-2,3.8-12.6,22.5-30.1,25c-1.4,0.2-2.9,0.7-4.3,0.7c-4,0-7.9-0.9-11.5-2.5l-1.3,2.4
	c4,1.9,8.4,2.8,12.9,2.8c1.5,0,3.1-0.1,4.7-0.3c16.9-2.4,27.4-17.8,31.3-24.6H-299z"/>
<path class="st1" d="M-295.3,237.2c-3.4,4.6-7.2,8.6-11.2,11.9l1,1.2c4-3.2,7.7-7.2,11.1-11.7c6.9,9.4,18.5,20.7,35.2,23.1l0.4-2.8
	c-17.1-2.4-28.6-14.5-35.4-24.8C-294.6,233.6-295.3,237.2-295.3,237.2z"/>
<path class="st2" d="M-250.7,248.8c-2.2,0.1-4.4,0.1-6.7-0.3c-5.1-0.7-10.1-2.8-14.9-6.1l-1.5,2.1c5,3.5,10.3,5.7,16,6.5
	c1.7,0.2,3.3,0.4,5,0.4c0.7,0,1.4,0,2.1-0.1V248.8z"/>
<path class="st1" d="M-297.7,223.7l-1.3,0.6l-1.2-2.7c-0.9-1.7-4.1-7.6-9.5-13.4l-2.3,2c4.7,4.9,7.6,9.8,8.6,11.7l4,7l3.4-2
	C-296,226.9-297.7,223.7-297.7,223.7z"/>
<path class="st0" d="M-252.8,246.5c-1.4,0-2.9-0.1-4.3-0.3c-18-2.6-28.5-20.9-30.4-24.5l2.8-1.5c1.1,2.1,11.2,20.5,28.1,22.9
	c1.3,0.2,2.6,0.3,3.9,0.3C-252.8,243.3-252.8,246.5-252.8,246.5z"/>
<path class="st3" d="M-227.7,213.9c-1.2-3.9-3.4-7.5-6.4-10.4c-4-3.8-9-6.2-14.7-7l0.5-3.6c6.3,0.9,12,3.7,16.6,8
	c3.5,3.3,6,7.4,7.4,11.9L-227.7,213.9L-227.7,213.9z"/>
<path class="st3" d="M-275.8,202.5l-1.7-1.9c6.1-5.4,12.7-8.6,19.8-9.6c1.7-0.2,3.3-0.4,5-0.4c8.5,0,16.6,3.1,22.6,8.9l-1.8,1.9
	c-5.5-5.2-12.8-8.1-20.8-8.1c-1.5,0-3.1,0.1-4.6,0.3C-263.9,194.5-270.1,197.5-275.8,202.5z"/>
<path class="st2" d="M-288.9,227.6l-8.9-4.2l2.1-4.5c1.4-3,6.6-13,15.7-21.1l3.7-3.3l6.5,7.4l-3.7,3.3c-7.9,7-12.5,16.2-13.3,17.9
	C-286.8,223.1-288.9,227.6-288.9,227.6z"/>
<path class="st3" d="M-364.5,232.9c-1.6-3.8-2.5-7.7-2.5-11.9c0-8.2,3.3-16,9.3-21.7c2.1-2,4.5-3.7,7-5.1l1.4,2.7
	c-2.3,1.2-4.5,2.8-6.4,4.6c-5.4,5.2-8.4,12-8.4,19.5c0,3.7,0.7,7.3,2.2,10.7L-364.5,232.9z"/>
<path class="st2" d="M-353.9,203.3l-1.9-1.9c5.5-5.3,12.9-8.2,20.8-8.2c1.5,0,3.1,0.1,4.6,0.3c3.8,0.5,7.5,1.8,11,3.7l-1.3,2.4
	c-3.3-1.8-6.7-2.9-10.1-3.4c-1.4-0.2-2.8-0.3-4.2-0.3C-342.2,195.9-348.9,198.5-353.9,203.3z M-372.4,221h-1.6
	c0-10.1,4.1-19.7,11.5-26.8l1.1,1.2C-368.5,202.2-372.4,211.3-372.4,221z"/>
<path class="st3" d="M-307.2,192.9c-6.6-5.3-13.9-8.6-21.7-9.7c-2-0.3-4.1-0.4-6.1-0.4c-8,0-15.8,2.2-22.3,6.5l-1.2-1.8
	c7-4.6,15.1-7,23.6-7c2.1,0,4.3,0.2,6.4,0.5c8.1,1.2,15.8,4.6,22.8,10.1L-307.2,192.9z M-291.7,207.1l-4.3-3
	c6.9-9.8,19-22.1,36.6-24.6l0.7,5.2C-274.4,186.9-285.4,198.1-291.7,207.1z"/>
<path class="st0" d="M-286.7,207.7l-3.1-2.3c6.1-8,16.5-18.1,31.2-20.2c1.9-0.3,3.9-0.4,5.8-0.4c5,0,9.8,0.9,14.3,2.7l-1.4,3.6
	c-4.1-1.6-8.4-2.4-12.9-2.4c-1.7,0-3.5,0.1-5.2,0.4C-271.5,191-281.1,200.3-286.7,207.7L-286.7,207.7z"/>
<path class="st0" d="M-292.9,214l-4.3-1.7l1.3-3.1l0.1-0.2c5.5-8.7,17.6-23.9,36.8-26.6c2.1-0.3,4.1-0.4,6.2-0.4v4.4
	c-1.8,0-3.7,0.1-5.6,0.4c-16.4,2.3-27.2,14.4-33.4,24.4L-292.9,214z"/>
<path class="st0" d="M-293,209.2l-2.2-2.7c-3.7-5.2-7.8-9.7-12.2-13.2l2.1-2.6c4.7,3.7,9,8.4,12.8,13.8l2.1,2.6
	C-290.4,207.1-293,209.2-293,209.2z"/>
<path class="st1" d="M-224.8,193.8c-7.4-7.1-17.5-11-28-11c-2,0-4.1,0.1-6.1,0.4l-0.3-2.3c2.1-0.3,4.3-0.5,6.4-0.5
	c11.1,0,21.7,4.1,29.5,11.7L-224.8,193.8z"/>
<path class="st3" d="M-329.3,255.1l-0.8-5.6c22.3-3.3,33.6-29.3,33.7-29.6c0.5-1.2,12.4-29.4,38.1-33l0.8,5.6
	c-22.5,3.2-33.6,29.3-33.7,29.6C-291.7,223.3-303.7,251.5-329.3,255.1z"/>
<path class="st3" d="M-352.9,249.5l2.5-4.2c6,3.5,13,4.8,20.3,3.8l0.7,4.8c4.7-0.7,9.2-2.3,13.6-4.8l-4.1-7.2c-3.4,2-7,3.2-10.6,3.7
	c-1.4,0.2-2.8,0.3-4.2,0.3c-7.1,0-13.8-2.6-18.8-7.4c-2.4-2.3-4.3-5-5.6-7.9l-7.1,3.1c1.7,3.8,4.1,7.4,7.3,10.4l-0.4,0.4
	C-357.4,246.4-355.3,248.1-352.9,249.5z"/>
<path class="st3" d="M-334.9,256.4c-9.8,0-19.1-3.6-26-10.2l1.6-1.6c6.5,6.2,15.2,9.6,24.4,9.6c1.8,0,3.6-0.1,5.4-0.4
	c18.5-2.7,29.6-18.4,34.7-27.5l1.3-3l2.1,0.9l-1.3,3.2c-5.2,9.5-16.9,25.9-36.4,28.6C-331.1,256.3-333,256.4-334.9,256.4z"/>
<path class="st3" d="M-334.9,262.5c-11.4,0-22.1-4.2-30.2-11.9l2.8-3c7.3,6.9,17,10.8,27.3,10.8c2,0,4-0.1,6-0.4
	c7.7-1.1,15-4.4,21.6-9.7l2.6,3.2c-7.3,5.8-15.2,9.4-23.6,10.6C-330.5,262.3-332.7,262.5-334.9,262.5z"/>
<path class="st2" d="M-328.8,259.2l-0.5-3.6c16.6-2.4,27.6-14.8,33.9-24.7c0.2-0.3,1.9-3.3,2.5-4.5l3.2,1.7
	c-0.7,1.4-2.5,4.5-2.6,4.7v0.1C-299,243.4-310.8,256.6-328.8,259.2z"/>
<path class="st0" d="M-352.8,249.3c-10.3-6-16.6-16.6-16.6-28.2c0-1.7,0.1-3.4,0.4-5l2.5,0.4c-0.2,1.5-0.4,3.1-0.4,4.6
	c0,10.7,5.7,20.5,15.3,26C-351.6,247.1-352.8,249.3-352.8,249.3z"/>
<path class="st1" d="M-365.3,216.5l-4.9-0.8c1.4-8.9,6.3-16.8,13.8-22.2c7.6-5.5,17.2-7.7,26.8-6.3c2.2,0.3,4.3,0.8,6.4,1.5
	l-1.4,4.7c-1.8-0.6-3.7-1-5.6-1.3C-347.2,189.8-362.6,200.4-365.3,216.5z"/>
<path class="st2" d="M-365.9,251.3c-4.5-4.3-7.9-9.5-10.1-15.1l5.7-2.3c1.9,4.8,4.8,9.1,8.6,12.8
	C-361.7,246.7-365.9,251.3-365.9,251.3z"/>
<path class="st0" d="M-334.9,259.6c-10.6,0-20.7-4-28.2-11.1c-6.9-6.6-11.1-15.3-11.8-24.6v-0.1l-0.1-2.7l3.6-0.1l0.1,2.7
	c0.6,8.4,4.4,16.3,10.6,22.2c6.8,6.5,16,10.1,25.7,10.1c1.9,0,3.8-0.1,5.6-0.4l0.5,3.6C-330.8,259.5-332.9,259.6-334.9,259.6z"/>
<path class="st2" d="M-318.4,247.1l-1.1-1.9l1-0.6c12.6-7.3,19.8-21.3,21.1-24l0.5-1l2,1l-0.5,1c-1.3,2.8-8.7,17.4-22.1,25
	L-318.4,247.1z"/>
<path class="st3" d="M-290.3,219.6c-0.1-0.3-0.9-2.2-2.4-4.9l0.6-0.3c-5.3-9.7-17.3-26.3-37-29.1c-1.9-0.4-3.9-0.5-5.8-0.5v3.8
	c1.7,0,3.5,0.1,5.2,0.4c2.1,0.3,4.2,0.8,6.1,1.4l-1.4,4.4c18.3,6,27.5,27.5,27.6,27.7c0.5,1.2,12.7,29.9,38.9,33.6l1.1-7.6
	C-279.3,245.3-290.2,219.8-290.3,219.6z"/>
<path class="st2" d="M-218.1,221h-3.1c0-8.5-3.7-16.7-10.3-22.4c-7-6.1-16.6-8.8-26.2-7.4l-0.4-3.1c10.5-1.5,21,1.5,28.7,8.1
	C-222.3,202.6-218.1,211.6-218.1,221z M-338.9,208h8.3v25.9h-8.3V208z"/>
<path class="st3" d="M-347.7,216.8h25.9v8.3h-25.9V216.8z M-266.8,200.8l-0.6-1.1c-11.8,6.5-18.8,19.4-20.1,21.9l-1.2,2.5l-1.3-0.6
	l-0.5,1.2l4.7,2.1l2.1-4.7c1.2-2.3,10.8-19.3,26.3-22.1l-0.5-2.5C-261,198.1-264,199.2-266.8,200.8z"/>
<path class="st0" d="M-252.8,257.6c-1.9,0-3.9-0.1-5.9-0.4c-8.7-1.2-16.9-5.3-24.1-12l3.2-3.4c6.5,6.1,13.8,9.7,21.6,10.8
	c2.1,0.3,4.2,0.4,6.2,0.4l0.1,4.6C-251.7,257.6-252.8,257.6-252.8,257.6z"/>
<path class="st1" d="M-252.8,194.6c-1.4,0-2.9,0.1-4.4,0.3c-0.4,0.1-0.8,0.1-1.2,0.2l0.9,5c0.3-0.1,0.7-0.2,1-0.2
	c1.2-0.2,2.5-0.3,3.7-0.3c12.3,0,22.3,9.2,22.8,20.6l5.1-0.5C-225.7,205.7-237.9,194.6-252.8,194.6z"/>
<path class="st0" d="M-221.3,223c0.1-0.7,0.1-1.3,0.1-2c0-8.1-3.3-15.7-9.2-21.4l-1.5,1.6c5.5,5.2,8.5,12.2,8.5,19.8
	c0,0.6,0,1.2-0.1,1.8L-221.3,223z M-222.8,191.8l-2.3,2.4c7.3,7,11.3,16.2,11.5,26.1l3.3-0.3C-210.5,209.3-214.9,199.3-222.8,191.8z
	"/>
<path class="st3" d="M-245.5,259.9l3.4-10.9h3l3.5,10.9h-2.9l-0.6-2.2h-3.1l-0.6,2.2H-245.5L-245.5,259.9z M-240.6,251.5l-1,4h2.1
	L-240.6,251.5z M-234.6,248.9h4.4c3,0,4.2,1.5,4.2,3.7c0,1.5-0.6,2.6-1.8,3.3l2.1,4h-3.2l-1.6-3.5h-1.4v3.5h-2.7V248.9z
	 M-228.8,252.6c0-1-0.4-1.5-1.6-1.5h-1.4v3.1h1.4C-229.4,254.2-228.8,253.8-228.8,252.6z M-224.2,248.9h3.6c4.1,0,5.5,1.9,5.5,5.4
	c0,2.6-0.8,5.6-5.4,5.6h-3.6v-11H-224.2z M-221.5,251.1v6.5h1c2.2,0,2.4-1.4,2.4-3.2c0-2.1-0.2-3.3-2.6-3.3H-221.5L-221.5,251.1z
	 M-207.4,248.9h2.6v7.2c0,3.2-2.5,3.9-4.4,3.9s-4.3-0.6-4.3-3.9v-7.2h2.7v6.7c0,1.8,0.6,2.2,1.7,2.2c1.2,0,1.7-0.6,1.7-2.2V248.9z
	 M-202.9,257.6h2.8v-6.5h-2.8v-2.2h8.4v2.2h-2.8v6.5h2.8v2.2h-8.4V257.6z M-190.1,259.9h-2.6v-11h2.9l3.6,6.6v-6.6h2.5v10.9h-2.7
	l-3.7-7V259.9z M-173.1,254.4c0,3.2-1.2,5.6-4.7,5.6c-3.1,0-4.6-1.9-4.6-5.5c0-3.3,1.3-5.7,4.6-5.7
	C-174.6,248.8-173.1,250.2-173.1,254.4z M-175.9,254.4c0-2.7-0.2-3.4-1.8-3.4c-1.4,0-1.7,0.9-1.7,3.5c0,2.2,0.2,3.3,1.7,3.3
	S-175.9,256.9-175.9,254.4z"/>
<g>
	<path class="st4" d="M-245.2,265.6h3.6c4.1,0,5.5,1.9,5.5,5.4c0,2.6-0.8,5.6-5.4,5.6h-3.6v-11H-245.2z M-242.5,267.8v6.5h1
		c2.2,0,2.4-1.4,2.4-3.2c0-2.1-0.2-3.3-2.6-3.3H-242.5L-242.5,267.8z M-235.7,276.6l3.4-10.9h3l3.5,10.9h-2.9l-0.6-2.2h-3.1
		l-0.6,2.2H-235.7L-235.7,276.6z M-230.7,268.2l-1,4h2.1L-230.7,268.2z M-220.3,270l1.9-4.5h2.7l-3.4,6.6v4.3h-2.7v-4.2l-3.5-6.7
		h2.9C-222.4,265.5-220.3,270-220.3,270z"/>
</g>
<path class="st1" d="M-206.2,268.5c0-1.2-0.9-1.9-1.9-1.9c-0.8,0-1.7,0.5-2.3,1.2l-0.7-0.9c0.5-0.6,1.7-1.4,3.3-1.4c1.7,0,3,1,3,2.9
	c0,2.2-2.9,5.3-5.1,7h5.6v1.2h-7.3v-0.9C-209.6,274.1-206.2,270.6-206.2,268.5z M-193.5,270.7c0,2.7-0.7,5.9-4.2,5.9
	c-2.8,0-4.1-1.9-4.1-5.4c0-3.1,0.9-5.8,4.2-5.8C-194.7,265.5-193.5,267.5-193.5,270.7z M-199.7,274.6l3.2-7.8
	c-0.4-0.2-0.8-0.3-1.3-0.3c-2.2,0-2.7,2.2-2.7,4.3C-200.5,272.3-200.4,273.7-199.7,274.6z M-194.9,270.9c0-1.3-0.1-2.7-0.8-3.5
	l-3.2,7.8c0.3,0.2,0.8,0.3,1.3,0.3C-195.3,275.5-194.9,273.1-194.9,270.9z M-191,275.3h3.1v-8.6l-2.4,0.1v-1.2l3.8-0.2v9.8h2.9v1.2
	h-7.4C-191,276.4-191,275.3-191,275.3z M-176.9,276.6c-2.8,0-3.8-2.1-3.8-5.2c0-3.8,2.2-6,5.8-6c0.4,0,0.8,0,1.2,0.1v1.2
	c-0.4-0.1-0.8-0.1-1.2-0.1c-2.3,0-4.2,1.3-4.4,4.1c0.8-0.5,1.7-0.9,2.8-0.9c1.8,0,3.2,1,3.2,3C-173.2,275-174.6,276.6-176.9,276.6z
	 M-176.9,270.9c-1,0-1.9,0.4-2.4,0.9c0,1.9,0.5,3.6,2.6,3.6c1.5,0,2.1-1.2,2.1-2.4C-174.6,271.6-175.3,270.9-176.9,270.9
	L-176.9,270.9z"/>
<g>
	<path class="st3" d="M-245.2,227.1v16.5h16.5v-16.5H-245.2z M-232,236.9h-3.4v3.4h-3.3v-3.4h-3.4v-3.2h3.4v-3.4h3.3v3.4h3.4V236.9z
		 M-189.9,227.1v16.5h16.6v-16.5H-189.9z M-176.5,236.9h-10.1v-3.2h10.1V236.9z M-226.8,227.1v16.5h16.5v-16.5H-226.8z
		 M-218.6,239.2c-3.6,0-6.5-3.9-6.5-3.9s2.9-3.9,6.5-3.9s6.5,3.9,6.5,3.9S-214.9,239.2-218.6,239.2z"/>
	<circle class="st3" cx="-218.6" cy="235.3" r="1.8"/>
	<path class="st3" d="M-208.3,227.1v16.5h16.5v-16.5H-208.3z M-199,237.7l-2.3,2.3l-2.3-2.3l-2.3-2.3l2.3-2.3l2.3,2.3l4.8-4.8
		l2.3,2.3L-199,237.7z"/>
</g>
</svg>
