<svg xmlns="http://www.w3.org/2000/svg" viewBox="0 0 1134.91 137.94"><defs><style>.cls-1,.cls-2{fill:#fff;}.cls-1{stroke:#fff;stroke-miterlimit:10;stroke-width:5px;}</style></defs><title>Asset 2white</title><g id="Layer_2" data-name="Layer 2"><g id="Layer_1-2" data-name="Layer 1"><path class="cls-1" d="M79.35,100.16a63.14,63.14,0,0,0-44.94,18.61,9.06,9.06,0,0,0,12.81,12.81,45.43,45.43,0,0,1,64.25,0,9.06,9.06,0,1,0,12.81-12.81A63.13,63.13,0,0,0,79.35,100.16Z"/><path class="cls-1" d="M157.22,75a9,9,0,0,0-5.5-4.22,45.43,45.43,0,0,1-32.12-55.64,9.06,9.06,0,0,0-17.5-4.69,63.13,63.13,0,0,0,6.35,48.22A63.13,63.13,0,0,0,147,88.25,9.06,9.06,0,0,0,157.22,75Z"/><path class="cls-1" d="M52.49,60.26A63.13,63.13,0,0,0,58.84,12a9.06,9.06,0,0,0-17.5,4.69A45.13,45.13,0,0,1,36.8,51.2,45.13,45.13,0,0,1,9.22,72.37a9.06,9.06,0,0,0,2.33,17.81,9.11,9.11,0,0,0,2.36-.31A63.13,63.13,0,0,0,52.49,60.26Z"/><path class="cls-1" d="M79.35,85.46A12.86,12.86,0,1,0,66.49,72.6,12.88,12.88,0,0,0,79.35,85.46Z"/><path class="cls-2" d="M333.87,136.8,323,106.21H263.95L253.12,136.8H237.73L287.51,1.52h12.16L349.26,136.8ZM293.78,22.23,268.32,93.67h50.54Z"/><path class="cls-2" d="M448.63,136.8V126.35c-6.65,7.6-16,11.59-26.41,11.59-10.07,0-18.43-3-24.13-8.74-6.65-6.46-9.5-15.39-9.5-26.22V43.32h13.68v57.57c0,16.53,8.74,24.89,22.8,24.89s23.37-8.55,23.37-24.89V43.32h13.68V136.8Z"/><path class="cls-2" d="M543.44,136.8c-16,0-23.94-11.21-23.94-25.08V54.34H507.72V43.89H519.5V14.63h13.68V43.89h19.95V54.34H533.18v57c0,8.55,4,13.68,12.73,13.68h7.22V136.8Z"/><path class="cls-2" d="M659.72,127.3c-6.46,6.46-15.39,10.64-26.79,10.64s-20.33-4.18-26.79-10.64c-9.5-9.69-11.4-22.8-11.4-37.24s1.9-27.55,11.4-37.24c6.46-6.46,15.39-10.64,26.79-10.64s20.33,4.18,26.79,10.64c9.5,9.69,11.4,22.8,11.4,37.24S669.22,117.61,659.72,127.3ZM650,61.18a24,24,0,0,0-17.1-6.84A23.52,23.52,0,0,0,616,61.18c-6.84,6.84-7.6,18.43-7.6,28.88s.76,22,7.6,28.88a23.52,23.52,0,0,0,16.91,6.84,24,24,0,0,0,17.1-6.84c6.84-6.84,7.41-18.43,7.41-28.88S656.87,68,650,61.18Z"/><path class="cls-2" d="M745.79,59.47V136.8h-24.7V59.47H710.82V40.66h10.26V28.31C721.09,14.25,729.83,0,750,0H764V20.9h-9.69c-5.89,0-8.55,3.23-8.55,8.93V40.66H764V59.47Z"/><path class="cls-2" d="M831.85,136.8c-20.33,0-28.88-14.25-28.88-28.31V1.52h24.7V107c0,5.89,2.47,8.93,8.74,8.93h9.5v20.9Z"/><path class="cls-2" d="M951.18,125.78c-6.08,6.46-16.15,12.16-30.78,12.16s-24.51-5.7-30.59-12.16c-8.93-9.31-11.21-20.52-11.21-38.57,0-17.86,2.28-29.07,11.21-38.38,6.08-6.46,16-12.16,30.59-12.16s24.7,5.7,30.78,12.16c8.93,9.31,11.21,20.52,11.21,38.38C962.39,105.26,960.11,116.47,951.18,125.78ZM932,63.27c-2.85-2.85-6.65-4.37-11.59-4.37s-8.55,1.52-11.4,4.37c-5.13,5.13-5.7,13.68-5.7,23.94s.57,19,5.7,24.13c2.85,2.85,6.46,4.37,11.4,4.37s8.74-1.52,11.59-4.37c5.13-5.13,5.7-13.87,5.7-24.13S937.12,68.4,932,63.27Z"/><path class="cls-2" d="M1104.7,136.8h-20.33l-20.71-62.13-20.71,62.13h-20.33l-30.4-99h26.22l16,61.18,20.14-61.18h18.05L1092.92,99l16-61.18h26Z"/></g></g></svg>